<svg xmlns="http://www.w3.org/2000/svg" viewBox="0 0 100 100" fill="none">
  <defs>
    <linearGradient id="fv-bg" x1="0" y1="0" x2="100" y2="100" gradientUnits="userSpaceOnUse">
      <stop stop-color="#0B0E1F"/>
      <stop offset="1" stop-color="#1A0B38"/>
    </linearGradient>
    <linearGradient id="fv-brand" x1="0" y1="0" x2="100" y2="100" gradientUnits="userSpaceOnUse">
      <stop stop-color="#7C3AED"/>
      <stop offset=".5" stop-color="#4F46E5"/>
      <stop offset="1" stop-color="#2563EB"/>
    </linearGradient>
    <linearGradient id="fv-gold" x1="74" y1="12" x2="88" y2="26" gradientUnits="userSpaceOnUse">
      <stop stop-color="#F59E0B"/>
      <stop offset="1" stop-color="#FCD34D"/>
    </linearGradient>
    <linearGradient id="fv-shine" x1="22" y1="20" x2="22" y2="42" gradientUnits="userSpaceOnUse">
      <stop stop-color="white" stop-opacity=".18"/>
      <stop offset="1" stop-color="white" stop-opacity="0"/>
    </linearGradient>
    <filter id="fv-pglow" x="-30%" y="-30%" width="160%" height="160%">
      <feGaussianBlur stdDeviation="2" result="b"/>
      <feMerge><feMergeNode in="b"/><feMergeNode in="SourceGraphic"/></feMerge>
    </filter>
    <filter id="fv-blob" x="-80%" y="-80%" width="260%" height="260%">
      <feGaussianBlur stdDeviation="14"/>
    </filter>
    <filter id="fv-starglow" x="-100%" y="-100%" width="300%" height="300%">
      <feGaussianBlur stdDeviation="2" result="b"/>
      <feMerge><feMergeNode in="b"/><feMergeNode in="SourceGraphic"/></feMerge>
    </filter>
    <clipPath id="fv-clip">
      <rect width="100" height="100" rx="22"/>
    </clipPath>
  </defs>

  <!-- Background -->
  <rect width="100" height="100" rx="22" fill="url(#fv-bg)"/>
  <!-- Brand sheen -->
  <rect width="100" height="100" rx="22" fill="url(#fv-brand)" opacity=".11" clip-path="url(#fv-clip)"/>
  <!-- Ambient purple glow -->
  <ellipse cx="50" cy="46" rx="38" ry="32" fill="#6D28D9" opacity=".28" filter="url(#fv-blob)" clip-path="url(#fv-clip)"/>
  <!-- Secondary blue glow (bottom-right) -->
  <ellipse cx="82" cy="78" rx="30" ry="26" fill="#2563EB" opacity=".18" filter="url(#fv-blob)" clip-path="url(#fv-clip)"/>

  <!-- P letterform — solid white -->
  <path d="M22,80 L22,20 L54,20 Q76,20 76,36 Q76,52 54,52 L37,52 L37,80 Z"
        fill="white" opacity=".95" filter="url(#fv-pglow)" clip-path="url(#fv-clip)"/>
  <!-- Subtle inner top-shine on the P -->
  <path d="M22,20 L54,20 Q73,20 76,33 Q68,26 54,24 L22,24 Z"
        fill="url(#fv-shine)" clip-path="url(#fv-clip)"/>

  <!-- Border ring -->
  <rect width="100" height="100" rx="22" fill="none" stroke="url(#fv-brand)" stroke-width="1.5" opacity=".45"/>

  <!-- Gold 4-pointed sparkle (top-right) -->
  <g transform="translate(80,19)" filter="url(#fv-starglow)">
    <polygon points="0,-6 1.4,-1.4 6,0 1.4,1.4 0,6 -1.4,1.4 -6,0 -1.4,-1.4"
             fill="url(#fv-gold)" opacity=".96"/>
  </g>

  <!-- Micro accent dots -->
  <circle cx="76" cy="66" r="2.2" fill="#4F46E5" opacity=".55"/>
  <circle cx="70" cy="58" r="1.4" fill="white" opacity=".22"/>
  <circle cx="28" cy="82" r="1.4" fill="white" opacity=".2"/>
</svg>
